<svg xmlns="http://www.w3.org/2000/svg" xmlns:xlink="http://www.w3.org/1999/xlink" viewBox="0,0,256,256" width="50px" height="50px" fill-rule="nonzero"><g fill="#334155" fill-rule="nonzero" stroke="none" stroke-width="1" stroke-linecap="butt" stroke-linejoin="miter" stroke-miterlimit="10" stroke-dasharray="" stroke-dashoffset="0" font-family="none" font-weight="none" font-size="none" text-anchor="none" style="mix-blend-mode: normal"><g transform="scale(5.12,5.12)"><path d="M25,2c-7,0 -10.0918,3.51758 -10.0918,3.51758c-0.565,-0.322 -1.2092,-0.51758 -1.9082,-0.51758c-2.209,0 -4,1.791 -4,4c0,1.863 1.276,3.41828 3,3.86328v10.01563l-3.56055,3.56055c-0.586,0.586 -0.586,1.53509 0,2.12109c0.293,0.293 0.67655,0.43945 1.06055,0.43945c0.384,0 0.76755,-0.14645 1.06055,-0.43945l1.3418,-1.3418c-0.251,2.676 -0.90234,3.93525 -0.90234,8.78125c0,2.529 1.22206,5.24084 3.53906,7.33984l-2.09961,2.09961c-0.586,0.586 -0.586,1.53509 0,2.12109c0.293,0.293 0.67655,0.43945 1.06055,0.43945c0.384,0 0.76755,-0.14645 1.06055,-0.43945l2.4707,-2.46875c2.134,1.169 4.79675,1.9082 7.96875,1.9082c3.172,0 5.8357,-0.7392 7.9707,-1.9082l2.46875,2.46875c0.292,0.293 0.67655,0.43945 1.06055,0.43945c0.384,0 0.76755,-0.14645 1.06055,-0.43945c0.586,-0.586 0.586,-1.53509 0,-2.12109l-2.09961,-2.09961c2.317,-2.099 3.53906,-4.81084 3.53906,-7.33984c0,-4.846 -0.65134,-6.10425 -0.90234,-8.78125l1.3418,1.3418c0.293,0.294 0.67655,0.43945 1.06055,0.43945c0.384,0 0.76755,-0.14645 1.06055,-0.43945c0.585,-0.586 0.585,-1.53509 0,-2.12109l-3.56055,-3.56055v-10.01562c1.724,-0.445 3,-2.00128 3,-3.86328c0,-2.209 -1.791,-4 -4,-4c-0.699,0 -1.3432,0.19558 -1.9082,0.51758c0,0 -3.0918,-3.51758 -10.0918,-3.51758zM13,8c0.299,0 0.55042,0.14256 0.73242,0.35156c-0.31,0.513 -0.566,1.06253 -0.75,1.64453c-0.544,-0.01 -0.98242,-0.45009 -0.98242,-0.99609c0,-0.552 0.448,-1 1,-1zM37,8c0.552,0 1,0.448 1,1c0,0.546 -0.43842,0.98609 -0.98242,0.99609c-0.184,-0.583 -0.44,-1.13153 -0.75,-1.64453c0.182,-0.209 0.43342,-0.35156 0.73242,-0.35156zM19.50195,9.00195c1.933,0.001 3.49709,1.567 3.49609,3.5c-0.001,1.933 -1.568,3.49905 -3.5,3.49805c-1.82856,-0.00095 -3.31087,-1.41019 -3.4668,-3.19727c0.13995,0.68332 0.74425,1.19727 1.46875,1.19727c0.828,0 1.5,-0.672 1.5,-1.5c0,-0.829 -0.671,-1.5 -1.5,-1.5c-0.7245,0 -1.3288,0.51394 -1.46875,1.19727c0.15584,-1.78962 1.64079,-3.19626 3.4707,-3.19531zM30.5,9.00195c1.933,0.001 3.49905,1.567 3.49805,3.5c-0.001,1.933 -1.56895,3.49905 -3.50195,3.49805c-1.933,-0.001 -3.49905,-1.56895 -3.49805,-3.50195c0.001,-1.933 1.56895,-3.49709 3.50195,-3.49609zM28.5,11c-0.828,0 -1.5,0.672 -1.5,1.5c0,0.828 0.672,1.5 1.5,1.5c0.828,0 1.5,-0.672 1.5,-1.5c0,-0.829 -0.672,-1.5 -1.5,-1.5zM25,16c1.105,0 2,0.448 2,1c0,0.552 -0.895,1 -2,1c-1.105,0 -2,-0.448 -2,-1c0,-0.552 0.895,-1 2,-1zM28.50586,18.49023c0.305,0.461 0.49414,0.98377 0.49414,1.50977c0,0.5 0,2 -4,2c-4,0 -4,-1.5 -4,-2c0,-0.525 0.18919,-1.04586 0.49219,-1.50586c0.66,0.919 1.93281,1.50586 3.50781,1.50586c1.577,0 2.85086,-0.58777 3.50586,-1.50977zM23,23.8457c0.583,0.096 1.24,0.1543 2,0.1543c0.76,0 1.417,-0.0583 2,-0.1543v1.1543c0,0.553 -0.448,1 -1,1c-0.552,0 -1,-0.447 -1,-1c0,0.553 -0.448,1 -1,1c-0.552,0 -1,-0.447 -1,-1z"></path></g></g></svg>