<?xml version="1.0" encoding="UTF-8"?>
<!DOCTYPE svg PUBLIC "-//W3C//DTD SVG 1.1//EN" "http://www.w3.org/Graphics/SVG/1.1/DTD/svg11.dtd">
<!-- Creator: CorelDRAW -->
<svg xmlns="http://www.w3.org/2000/svg" xml:space="preserve" width="40mm" height="60mm" version="1.1" style="shape-rendering:geometricPrecision; text-rendering:geometricPrecision; image-rendering:optimizeQuality; fill-rule:evenodd; clip-rule:evenodd"
viewBox="0 0 4000 6000"
 xmlns:xlink="http://www.w3.org/1999/xlink"
 xmlns:xodm="http://www.corel.com/coreldraw/odm/2003"
 xmlns:svgjs="http://svgjs.com/svgjs">
 <defs>
  <style type="text/css">
   <![CDATA[
    .fil0 {fill:#334155}
   ]]>
  </style>
 </defs>
 <g id="Layer_x0020_1">
  <metadata id="CorelCorpID_0Corel-Layer"/>
  <g id="_2565530967456">
   <g id="SvgjsG1008">
    <path class="fil0" d="M3193.47 2429.81c73.04,211.16 125.55,426.72 142.88,650.08 21.43,277.18 11.67,552.45 -46.79,825.04l-7.5 21.79c-18.34,0.06 -37.03,-2.26 -54.95,0.54 -151.39,23.81 -302.6,48.46 -453.87,72.99 -156.39,25.36 -312.9,49.71 -468.99,76.74 -55.3,9.53 -123.76,-1.85 -146.08,74.59l-10.72 3.63 7.56 -457.08 -7.68 -1102.88 72.86 -12.5c119.12,-19.47 238.24,-39.29 357.54,-58.28 142.28,-22.56 284.68,-44.59 427.08,-66.62 62.87,-9.64 125.79,-18.63 188.65,-28.04l0.01 0z"/>
    <path class="fil0" d="M1997.08 5487.74c-76.85,-66.08 -156.39,-129.24 -230.03,-198.77 -396.36,-373.86 -686.34,-813.97 -829.15,-1344.56 -39.35,-145.97 -65.54,-294.38 -74,-445.23 -5.95,-105.61 -14.47,-212.11 -6.97,-317.18 19.82,-279.38 60.25,-556.08 142.16,-825.22l4.52 -6.25c7.98,10.6 19.41,20 23.46,31.97 80.01,235.51 159.37,471.25 238.36,707.17 248.19,741.22 496.07,1482.62 744.68,2223.72 4.88,14.47 17.44,26.31 26.49,39.35l-39.53 135.02 0.01 -0.02z"/>
    <path class="fil0" d="M3193.47 2429.81c-62.92,9.35 -125.85,18.4 -188.65,28.04 -142.4,22.03 -284.8,44.05 -427.08,66.62 -119.24,18.93 -238.36,38.75 -357.54,58.28l-72.86 12.5 -0.6 -47.51c-2.44,-39.05 -6.49,-78.11 -7.02,-117.16l-8.16 -747.36c-1.91,-155.91 -4.76,-311.82 -7.92,-467.68 -1.96,-96.86 -4.05,-193.77 -8.39,-290.51 -2.38,-51.97 -10.78,-103.7 -14.11,-155.67 -1.96,-29.88 0.65,-60.01 1.31,-90.01 37.15,71.97 73.52,144.48 111.67,215.92 60.31,112.93 156.45,196.16 243.07,286.94 342.07,359.03 584.89,776.23 736.28,1247.6z"/>
    <path class="fil0" d="M2147.52 4155.2l10.72 -3.63c22.32,-76.44 90.78,-65.07 146.08,-74.59 156.09,-27.03 312.6,-51.38 468.99,-76.74 151.27,-24.47 302.48,-49.11 453.87,-72.99 17.92,-2.8 36.61,-0.48 54.95,-0.54 -28.28,100.97 -50.54,204.13 -86.44,302.3 -40.78,111.31 -90.07,220.02 -142.4,326.58 -78.22,159.25 -175.68,307.84 -288.91,443.98 -87.27,104.89 -184.55,201.99 -282,297.78 -53.94,52.92 -117.4,96.08 -176.57,143.71l-15.36 -10.48 -55.19 -47.15 -57.08 -125.25c-39.35,-146.57 -59.95,-295.75 -63.4,-447.44l1.07 -25.48 7.8 -110.37c2.56,-37.68 6.01,-75.31 7.62,-112.99 5.72,-135.49 10.83,-271.11 16.25,-406.71l0 0.01z"/>
    <path class="fil0" d="M2147.52 4155.2c-5.36,135.6 -10.48,271.27 -16.25,406.89 -1.61,37.74 -5,75.37 -7.62,112.99l-34.77 13.16c-77.27,-227.47 -154.6,-452.55 -230.21,-678.17 -125.08,-373.32 -248.6,-747.18 -373.5,-1120.62 -100.79,-301.35 -202.47,-602.52 -304.68,-903.45 -4.82,-14.05 -18.51,-25.12 -28.04,-37.56l222.65 -409.4c7.68,13.28 17.74,25.72 22.56,40.01 102.99,304.8 205.8,609.66 307.72,914.82 132.64,397.07 264.38,794.33 396.89,1191.46 5.3,15.84 13.99,30.48 22.32,48.28l30.48 -35.48c-2.56,152.4 -5.06,304.68 -7.56,457.08l0.01 -0.01z"/>
    <path class="fil0" d="M1152.39 1948.44c9.58,12.44 23.28,23.51 28.04,37.56 102.22,300.93 203.89,602.04 304.68,903.45 124.9,373.44 248.42,747.3 373.5,1120.62 75.6,225.62 152.94,450.64 230.21,678.17l34.77 -13.16 -7.8 110.37 -7.08 25.42c-12.08,120.79 -22.26,241.82 -37.03,362.37 -7.38,60.42 -23.16,119.72 -35.12,179.49 -8.99,-13.04 -21.61,-24.88 -26.49,-39.35 -248.66,-741.1 -496.49,-1482.5 -744.68,-2223.72 -79,-235.92 -158.41,-471.67 -238.36,-707.17 -4.05,-11.97 -15.48,-21.37 -23.46,-31.97l148.83 -402.07 -0.01 -0.01z"/>
    <path class="fil0" d="M2155.02 3698.12l-30.48 35.48c-8.33,-17.8 -17.03,-32.44 -22.32,-48.28 -132.52,-397.13 -264.26,-794.39 -396.89,-1191.46 -101.92,-305.16 -204.73,-610.02 -307.72,-914.82 -4.82,-14.29 -14.88,-26.73 -22.56,-40.01l275.33 -362.19c8.69,11.55 21.07,21.85 25.54,34.89 76.44,223.84 152.16,447.85 227.53,672.05 70.37,209.43 139.66,419.1 210.86,628.17 4.76,13.99 21.37,23.87 32.44,35.78l0.6 47.51 7.68 1102.88 -0.01 0z"/>
    <path class="fil0" d="M2146.74 2547.74c-11.13,-11.85 -27.68,-21.73 -32.44,-35.78 -71.14,-209.07 -140.49,-418.74 -210.86,-628.17 -75.37,-224.19 -151.09,-448.21 -227.53,-672.05 -4.46,-13.04 -16.85,-23.34 -25.54,-34.89 89.54,-87.69 176.27,-178.53 269.44,-262.18 82.81,-74.3 149.36,-153.95 152.46,-271.4l6.55 -23.4 23.57 59.41c-0.6,30 -3.27,60.13 -1.31,90.01 3.39,51.97 11.79,103.7 14.11,155.67 4.35,96.74 6.43,193.66 8.39,290.51 3.16,155.85 6.01,311.77 7.92,467.68l8.16 747.36c0.6,39.11 4.7,78.16 7.08,117.22l0 0.01z"/>
    <path class="fil0" d="M2036.61 5352.66c11.97,-59.77 27.74,-119.06 35.12,-179.49 14.76,-120.49 24.94,-241.58 37.03,-362.37l3.04 -0.48 2.98 0.54c3.45,151.69 24.05,300.87 63.4,447.44 -8.04,10.6 -19.29,19.94 -23.57,31.85 -33.04,93.23 -64.23,187.23 -97.45,280.39 -4.52,12.74 -17.26,22.68 -26.13,33.81l-33.99 -116.68 39.59 -135.02 -0.02 0.01z"/>
    <path class="fil0" d="M2031.02 5604.42c8.87,-11.19 21.61,-21.07 26.13,-33.81 33.22,-93.17 64.41,-187.17 97.45,-280.39 4.23,-11.91 15.54,-21.25 23.57,-31.85l57.08 125.25c-11.25,15.95 -26.85,30.42 -33.1,48.22l-109.29 320.99c-4.52,12.92 -19.82,21.97 -30.18,32.86l-31.67 -181.27 0.01 0z"/>
    <path class="fil0" d="M2062.69 5785.63c10.3,-10.89 25.66,-19.94 30.18,-32.86l109.29 -320.99c6.19,-17.8 21.85,-32.27 33.1,-48.22l55.25 47.09c-26.67,26.37 -41.49,56.85 -32.56,95.37l-16.79 54.95c-7.62,9.41 -18.69,17.62 -22.44,28.4 -38.15,109.3 -74.52,219.19 -112.98,328.43 -4.88,13.81 -18.4,24.71 -27.86,36.97l-15.18 -189.13 -0.01 -0.01z"/>
    <path class="fil0" d="M2077.81 5974.7c9.53,-12.26 23.04,-23.16 27.86,-36.97 38.46,-109.24 74.89,-219.13 112.98,-328.43 3.75,-10.78 14.82,-18.93 22.44,-28.4l-23.16 252.17c-6.19,7.14 -15.12,13.39 -18.1,21.67l-77.02 220.74c-5.42,15.06 -15.78,28.52 -23.87,42.62 -7.2,-9.41 -20.06,-18.51 -20.66,-28.28 -2.26,-38.22 -0.65,-76.74 -0.48,-115.13l0.01 0.01z"/>
    <path class="fil0" d="M2099 6118.17c8.1,-14.11 18.45,-27.56 23.87,-42.62l77.02 -220.74c2.98,-8.33 11.97,-14.53 18.1,-21.67l0.6 165.5 -55.41 142.1 -64.17 -22.56 -0.01 -0.01z"/>
    <polygon class="fil0" points="2163.18,6140.74 2218.59,5998.64 2230.02,6166.76 "/>
    <path class="fil0" d="M2257.88 5526.02c-8.87,-38.46 5.89,-68.94 32.56,-95.37l15.36 10.48 -47.92 84.89z"/>
    <polygon class="fil0" points="2114.78,4810.93 2111.8,4810.39 2108.76,4810.87 2115.84,4785.45 2114.77,4810.93 "/>
   </g>
  </g>
 </g>
</svg>
